<svg xmlns="http://www.w3.org/2000/svg" width="511" height="512"><path fill="#efefe8" d="M103.6.9h130.8L410.8.6Q422.1.7 433 3l2.2.4A96 96 0 0 1 481 26v2l1.8.7c2.7 1.6 4 3.3 5.8 5.7 2.3 3.2 2.3 3.2 4.9 6 13.4 14 18.1 37 18 55.7v250.6l-.1 73.8c0 8.3-.7 15.6-3.4 23.5l-1.2 3.5q-4 10.7-9.8 20.5l-1.6 2.8-1.4 2.2h-2l-2 5h-2l-.8 1.8c-1.4 2.5-2.9 3.9-5 5.7a71 71 0 0 0-6 5.5c-18.2 17.3-45.6 21.3-69.5 21.3H100.4c-11.3 0-22.5-1.1-33.3-4.9l-2.2-.7c-25.1-9-43.9-27.3-55.6-51.1-6.7-15-9.5-28.8-9.4-45V142.5a1505 1505 0 0 1 .5-47 86 86 0 0 1 5.7-31.7A101 101 0 0 1 39 20c2.3-.8 2.3-.8 4-1v-2A124 124 0 0 1 103.6.9"/><path fill="#cc403e" d="M103.6.9h130.8L410.8.6Q422.1.7 433 3l2.2.4A96 96 0 0 1 481 26v2l1.8.7c2.7 1.6 4 3.3 5.8 5.7 2.3 3.2 2.3 3.2 4.9 6A73 73 0 0 1 507 66l1.2 3c3 9.1 3.2 17.9 3.2 27.3v4c-.1 9.4-.1 9.4-2.4 11.7q-4 .3-8 .3H13c-8.9 0-8.9 0-12.1-3.3-2.1-27 3.6-51.6 21.2-72.6C36.4 19.9 36.4 19.9 43 19v-2A124 124 0 0 1 103.6.9"/><path fill="#043d90" d="M0 395h1l1 7h509c0 26.8-1.1 44-14 66l-1.6 2.8-1.4 2.2h-2l-2 5h-2l-.8 1.8c-1.4 2.5-2.9 3.9-5 5.7a71 71 0 0 0-6 5.5c-18.2 17.3-45.6 21.3-69.5 21.3H100.4c-11.3 0-22.5-1.1-33.3-4.9l-2.2-.7c-25.1-9-43.9-27.3-55.6-51.1a107 107 0 0 1-9.3-51z"/><path fill="#07254e" d="M118 426h6.4l3.7-.1c2.9.1 2.9.1 3.9 1.1l.1 7.5v2.3L132 461h3v-35h14c1 1 1 1 1.1 4.2v6.6L150 461h3v-35h14l1 9c2.8-1.4 3.4-3.4 5-6 1.2-1.6 1.2-1.6 3-3 3.2-.3 3.2-.3 7-.3h2.1l11 .2 10.9.1v13h-23v5l1-4h23v-6l1-2h2v-6l25.3-.6h2.1c2.8 0 5 0 7.2 1.9 3.4 3.8 4 6.7 3.8 11.8v3.6c-.4 3.3-.4 3.3-1.6 6l-.8 2.3 2 3c.8 6.4 1.6 14-2.5 19.4-2.5 2.4-4.4 3-7.9 3l-3.6-.4-.2 1.8c-1.2 3.2-2.8 3.7-5.8 5.2q-6 .7-11.9.4l-3.2.1c-6.6 0-10.4-.8-15.9-4.5h-3l-1.8 2c-4.3 4-10.6 2.6-16.1 2.6h-3.9c-9.2 0-9.2 0-12-1.7-1.4-1.4-1.4-1.4-3.2-3.9l-3-1-.4 1.9c-.6 2.1-.6 2.1-2.6 4.1q-4.4.2-8.7.2h-2.6L113 483v-2l-1.7-.2c-3.1-1-4.3-2.2-6.3-4.8a57 57 0 0 1-.5-8.5v-23.2c.1-4.5.5-7.7 3.5-11.3 3.6-.4 3.6-.4 7 0l2 2z"/><path fill="#b11e21" d="M252 183c21.6 0 32 1 49 11v2l1.8.8c7.9 4.3 11.6 13 14.2 21.2 3 14.2.8 27.8-7 40h-2l-.7 1.8c-4.4 7.6-15.4 11.6-23.3 14.2-9 2-9 2-32 2z"/><path fill="#bb2728" d="M28 33c.8 5.4-2.1 8.8-5 13.1A31 31 0 0 0 17 66v13l-1-3h-2l.7 2.1.9 2.8.8 2.7C17 86 17 86 16 88l2 3 .5 4c0 4 0 4 2.5 6l3-1v3l2.1-1c5.8-2 10.3-.8 15.9 1v2l3-.3 3.9-.3 3.8-.3c3.3-.1 3.3-.1 5.3.9v-2h2v2l1.7-.7c5-1.7 9-2.6 14.3-2.3h5l1 3 11 .2c4.8 0 8.6-.4 13-2.2l-1 3h3.8c7.6 0 7.6 0 11.2.2l2.3.2 10.7.6v-2l2.4.6 2.6.4 1-1h5l1-3c2.6-1.2 2.6-1.2 5-2v4c3.3 0 5.8 0 9-1v2l2.1-.6c3.5-.5 5.8.1 9.2 1l3.3 1 2.4.6v-2h9.3a34 34 0 0 0 9.7-1c2.8.4 2.8.4 5 1l-1-3 3-1v4l1.8-.3c6-.8 11-.4 17 1 2.2.5 2.2.5 4.2-.7h3l1 2 3-2c2.3-.2 2.3-.2 4.7-.1h2.4l1.9.1 1-2v2h2v2l1.7-.6c2.7-.5 4.6 0 7.3.6l1-2 1 1a70 70 0 0 0 8 1v-2h11l1-3 2 3 1-2 7-1 1 3 6.8.1 3.7.1c3.3-.2 4.7-.7 7.5-2.2h4l2 2 2-1 7 1h8l1 1 7 1v-2h28v2h10l1-2v2l5.8-.4 3.3-.3c3-.2 3-.2 5.9-1.3l3 .5c2.9.5 4.2.4 7-.5h3v-2l7-1 1 3h5v2l5-1v-3l5 1-2 1v2h5l1-5 6 1-1 2-3 1h8l1-1h7v-2l4.8-.5q1.4 0 2.7-.3 5.8-.4 11.5.8v2l3.4-1q6-1.3 12.2-1 4.7 0 9.4-1l-1 3c5.7-.5 5.7-.5 10-4h3c2.2-8 2.2-8 1-16v-4h-3l-1.5-11.7-.4-3.3-.4-3.3-.4-3a65 65 0 0 1-.3-7.7l-3-1c-1.1-3.3-1.1-3.3-2-7l-.6-2.4-.4-1.6h2c5 8.4 9.7 16.7 13 26l1.2 3c3 9.1 3.2 17.9 3.2 27.3v4c-.1 9.4-.1 9.4-2.4 11.7q-4 .3-8 .3H13c-8.9 0-8.9 0-12.1-3.3a101 101 0 0 1 22.2-74.2C25 33 25 33 28 33"/><path fill="#022558" d="M294.8 425.3h23.7c4.1 0 6.8.5 10 3.1 2.5 2.6 2.5 2.6 2.5 4.6h2l1-7 17.9-.5c12.6-.5 12.6-.5 16.4 2 1.6 2 1.6 2 2.8 4l.9 1.5h2l.2 37.8v5.1c-.2 2.1-.2 2.1-2.2 5.1-2.3.3-2.3.3-5 .3l-2.8-.1c-2.2-.2-2.2-.2-3.2-1.2l-.1-4.5v-8.4l.1-7.1h-4l-1 2h-4v2h-4v-3c.4-2.9.4-2.9-1-4v18h-12l-.4 2.9c-.6 3.1-.6 3.1-2.6 5.1h-16l-1 1c-2 .3-2 .3-4.4.4l-2.4.1c-2.2-.5-2.2-.5-4-2.6a24 24 0 0 1-1.9-9.2l-.2-3.3-.1-2.4-6-2-1-7h21v16h2l-1-17h-23v18h-13l-.5-33.9v-2.8c0-4.4.1-6.7 2.5-10.4 4-2.6 7-2.6 11.8-2.6"/><path fill="#002973" d="M510 406h1l.2 12.8v3.6c.1 7.7-.7 14.3-3.2 21.6l-1.2 3.5q-4 10.7-9.8 20.5l-1.6 2.8-1.4 2.2h-2l-2 5h-2l-.8 1.8c-1.4 2.5-2.9 3.9-5 5.7a71 71 0 0 0-6 5.5c-18.2 17.3-45.6 21.3-69.5 21.3H100.4c-11.3 0-22.5-1.1-33.3-4.9l-2.2-.7A99 99 0 0 1 11 459q-2.2-5-4-10l4 1v2l3 1c1.2 3.6 1.2 3.6 2 7l2-3 5 13 3-1 1 3 2-4v6l4 1v2l2.4.3 2.6.7 2 4c2 1.3 2 1.3 4 2v4l3-1v4l3.4.9L54 493l1 2q5.1 1.8 10.6 2.5 6 .9 11.4 3.5v2l3.6-1.2c4.6-1.2 7.1.1 11.4 2.2 2.7.4 2.7.4 5 0l2-2 6 1 2.2-.6 1.8-.4 3 2c2.6.3 2.6.3 5.4.2h6.6l3.4-.1 11.6-.1 2.9-.6c4.6-.7 9 0 13.7.3q11.3 1 22.4-.7h3l1 2 1.7-.5q3.1-.7 6.4-.6h7.1q7 0 13.8 1.1l1-2v2l9.3-.5 2.7-.1 2.6-.2 2.3-.1 5.1-.1h4.9l2.6-.1q3.3 0 6.5 1.1v-2l2.7.6c3.2.4 5.2.2 8.3-.6v2l3-.5q6.4-.8 13-.5l1-2q3.5.1 7 1v2l2.8-.2q15.5-1 31-.8h3.1l2.8.1c2.3 0 2.3 0 4.3-1.1v2l6.7-.4 3.7-.3c3.5-.2 3.5-.2 6.4-.9 2.2-.4 2.2-.4 5.2.6a235 235 0 0 0 16.4.1h15.8c3.7.4 3.7.4 6.8-1.1h6v1h6.3l3.6.1c3.1 0 3.1 0 6.1-1.1l2.1.5c7.2 1.3 15.9-.7 22.9-2.5l2-2q2.5-.8 5.2-1.5l3-.8 5-1.2a14 14 0 0 0 7.8-4.5l5-1 2-2 2.8-.4c3.8-.7 5.4-2 8.2-4.6l3-5c2-2.3 2-2.3 4-4h2v-5h2v-2h2v-5l3-1 1-4 2.9-4.5c4-6.4 5.5-13.1 6.5-20.5q.9-4.4 2.7-8.4l1-2.6.9-2-2-1 1-8 4-1z"/><path fill="#053276" d="M47 191c17 0 17 0 20.6 3.3L70 199l3.6 5.4 2.1 3.2 1.2 1.7 9 13.6 5.6 8.6 2 3L96 239l1-48h19v84c-17 0-17 0-20.8-2.9-1.3-1.8-1.3-1.8-2.4-4l-1.4-2-4-7-8-13.1Q73.7 236 67 227l-1 48H47z"/><path fill="#033175" d="M186 214h15v6l1.9-1.3a34 34 0 0 1 26.4-4.3c5.8 2 10.1 7.4 12.8 12.8 4 11.3 3 25-1.7 35.9-2.9 5.4-7.6 10-13.4 11.9l-8.4.3h-6.5c-2.1-.3-2.1-.3-7.1-3.3l-1 28h-18z"/><path fill="#06316c" d="M118 426h6.4l3.7-.1c2.9.1 2.9.1 3.9 1.1l.1 7.5v2.3L132 461h3v-35h14c1 1 1 1 1.1 4.2v6.6L150 461h3v-35h14l1 9 2-1v3.1l.3 23.8v2.2c0 3.8.6 5.8 2.8 8.9 3.6 2.5 5.6 2.7 10 2.7h2l10.5.2 10.4.1v1h-5l2 5 12.8-.2h3.6l3.5-.2h3.3c3.4-.4 3.4-.4 6.8-4.6h-20v-1h30v1h-8l-.2 1.8c-1.2 3.2-2.8 3.7-5.8 5.2q-6 .7-11.9.4l-3.2.1c-6.6 0-10.4-.8-15.9-4.5h-3l-1.8 2c-4.3 4-10.6 2.6-16.1 2.6h-3.9c-9.2 0-9.2 0-12-1.7-1.4-1.4-1.4-1.4-3.2-3.9l-3-1-.4 1.9c-.6 2.1-.6 2.1-2.6 4.1q-4.4.2-8.7.2h-2.6L113 483v-2l-1.7-.2c-3.1-1-4.3-2.2-6.3-4.8a57 57 0 0 1-.5-8.5v-23.2c.1-4.5.5-7.7 3.5-11.3 3.6-.4 3.6-.4 7 0l2 2z"/><path fill="#b05a1b" d="M191.3 304.5h3l3.3.1h3.2c7.8.1 7.8.1 11.2 2.4.3 2.2.3 2.2.2 4.6v2.5l-.2 1.9h2.9q34-.2 68.1 1v5l-4 1v3l.1 21.9v2.1l-.1 5-1 1h-7v-22h-4l.1 2.5v3.3l.2 3.2c-.3 3.4-.7 4.7-3.3 7-2.8.5-2.8.5-6 .5h-3c-3-.5-3-.5-5.3-2-2.3-3.3-2.2-5.6-2.2-9.5v-3.7c.5-3.3.5-3.3 2.3-5.7 3-2.2 5.5-1.9 9.2-1.6v-5h-25v2h3.3c3.7 0 3.7 0 6.7 1 1.2 2.3 1.1 3.7 1.1 6.3V345c-.1 1.9-.1 1.9-1.1 3.9-2 .4-2 .4-4.6.6l-2.5.3-1.9.1-1 6h-7l-1-2-1.6 2.5c-2.4 2.5-2.4 2.5-6.2 2.8l-3.2-.3c.5-3.8 1.5-6 4-9l-3-2c-1.4-3.5-1.2-7.3-1.2-11v-3.7c.2-3.1.3-4.8 2.2-7.3 2.7-1 5.1-.9 8-1 1 1 1 1 1 3.6v2.4h-3v13l4-1v-20h-16v33h-7v-5l-3.8.2c-2.6.1-3.7.1-5.8-1.4-1.8-2.3-1.8-3.5-1.7-6.4v-8.3c.1-6.8.1-6.8 1.3-9.1q4-.7 8-1c-3 2-3 2-6 2l1 18 2 1v-15h1v14h4v-22h-15v33h-7v-33l-4-1v-5h4l-.2-3.7c-.3-3 0-4 1.9-6.4 2.8-2.3 4-2.4 7.6-2.4"/><path fill="#de5652" d="M95 1 233.6.9h3L410.9.7C421.3.7 431 2.3 441 5l-.6 2.4c-.7 2.6-.7 2.6.6 4.6-2.5.9-4 1-6.7.5q-5.5-.8-11-.5l-18.4.2h-2c-3.3 0-6-.2-9.1-1.2q-6-1.4-12-1.2h-68.2q-4.9 0-9.6 1.2l-4.8-.5c-4.3-.5-8-.2-12.2.5l-5-1-5.2-.1h-9.9l-14.5.1h-14c-20.1.2-20.1.2-24.4-2q-5-.5-10-.6l-3-.2q-16.8-.4-33.4.5-12.4.5-24.9-.5A222 222 0 0 0 109 8q-3.4 0-7-.4l-3.4-.3L96 7q-1-2.8-1-6"/><path fill="#063276" d="M364 216.7c5.2 3.4 8 7.2 9.6 13.2q1 6 .8 12.2v2.9l.6 30h-14l-2-4-2 .8-3 1.2-2 .8c-7.8 3-15.5 3.6-23.2.3A22 22 0 0 1 320 263c-.7-5.9-.5-11 3-16 7.3-8.2 17-9.2 27.3-10.6 2.7-.3 2.7-.3 4.7-1.4-.4-3.3-.4-3.3-2-6l-5.8-.3-3.2-.1c-3.7.5-4.7 1.6-7 4.4l-1 2-12-2c.3-6.5 2.5-10.4 7-15 8-7 24-5.7 33-1.3"/><path fill="#0e469a" d="M0 395h1l1 7h509v4c-6 1.6-11.7 2.3-18 2.2H361.9l-220.7-.1L0 408z"/><path fill="#043175" d="M459.9 216.4c7 5.1 10 11.4 12.1 19.6v13h-39c3.1 7.6 3.1 7.6 9 11 3.4.5 3.4.5 7 .4h3.5a24 24 0 0 0 9.5-3.4h3l2 4.3 1.1 2.3c.9 2.4.9 2.4.9 6.4-9.7 6.3-20.8 6.5-32 5a30 30 0 0 1-19-15 40 40 0 0 1-2.3-27 31 31 0 0 1 14.5-17.4 33 33 0 0 1 29.7.8M167 216c6.8 4.5 10.6 10 12.8 17.8q.3 7.5.2 15.2h-39c1.8 8.7 1.8 8.7 5.8 10.5q5 .8 10.2.8h3.6c3.7-.3 6-1.6 9.4-3.3 3 1 3 1 4.7 4.3 2 5.6 2 5.6 1.3 8.7-8.8 7-21.5 6-32 5a30 30 0 0 1-18-14c-4-9.6-5-21.7-1.2-31.6 3.8-8 9-12 17-15.7A40 40 0 0 1 167 216"/><path fill="#96643e" d="M379 317v6h-4v3l.1 21.9v2.1l-.1 5c-1 1-1 1-4 1.1-3-.1-3-.1-4-1.1l-.1-5.3v-10.2l.1-8.5-4 1-.3 10.8.3 6.2 3 2-1 5c-6.5.4-6.5.4-8.7-1.1-1.9-2.7-1.6-4.7-1.6-7.9v-3.5l.1-3.7v-3.7l.2-9.1c3-1.6 4.9-2.2 8.3-2.1l3.7.1v-2h-17v33h-7v-5l-1.9.1h-2.5l-2.4.2-2.2-.3c-2.1-3.2-2.2-4-2.2-7.6v-8.3c0-6.8 0-6.8 1.2-9.1q4-.7 8-1c-3 2-3 2-6 2l1 18 2 1v-15h1v14h4v-22h-14v7l.1 17.9v2.1l-.1 5c-1 1-1 1-4 1.1-3-.1-3-.1-4-1.1a210 210 0 0 1 0-16h-14v11h4v-8h7l.3 8.3c-.3 2.7-.3 2.7-1.4 4.5-2.7 1.7-4.8 1.6-7.9 1.6h-3.2c-2.8-.4-2.8-.4-4.5-1.6-1.9-2.6-1.6-4.5-1.6-7.8v-3.5l.1-3.7v-3.7l.2-9.1h7v6h4v-10h-7l-3.8.1c-3.2-.1-3.2-.1-4.2-1.1v-5c27.7-1 55.3-1.4 83 0"/><path fill="#063176" d="M252 183c21.6 0 32 1 49 11v2l1.8.8c7.9 4.3 11.6 13 14.2 21.2 3 14.2.8 27.8-7 40h-2l-.7 1.8c-4.4 7.6-15.4 11.6-23.3 14.2-9 2-9 2-32 2zm6 5v82c18.6 0 30.3-2.6 44-14.6 2.4-2.9 3-4.7 3-8.4-5.8-6.9-15-10.2-23-14l-2-1 9-4.6 2.6-1.3A47 47 0 0 0 306 216c.9-3.8.3-5.4-1.4-8.9a51 51 0 0 0-29.7-18.5c-6-.9-6-.9-16.9-.6"/><path fill="#e67c2d" d="M446 305c5-1 5-1 8 0q3.4 4 6 8.5c1.8 2.7 1.8 2.7 4.7 3.3l2.3.2v5l-5 1v33h-7v-33h-4v33h-7l-1-9-1 2c-4 6.7-4 6.7-7.2 7.6-2.2 0-2.2 0-5.8-.6.5-4.3 2-6.6 4.7-10 3-3.7 3-3.7 2.8-8.4L435 335l-1-3-5-1c-1.1-3.7-1.1-3.7 0-6 8.2.2 8.2.2 11.5 3.4l2.5 4.6 1-10h-18v33h-7v-33h-4v3l.1 21.9v2.1l-.1 5c-1 1-1 1-4 1h-3l-1-5h-3.9c-3.9.1-3.9.1-6.1-1-1-3.1-1.1-5.3-1.1-8.5v-10.1l.1-8.4-4-1v-5q29.5-1.3 59-1l-1-1.6-1.5-2.2-1.4-2.2c-1.1-2-1.1-2-1.1-5"/><path fill="#dbdbd7" d="m1 109 2.5 1a41 41 0 0 0 12 1.2h487.9c3.9 0 3.9 0 7.6-1.2l-1 4c-4 1.3-8 1.1-12.2 1.1H17.5Q9.8 115 2 114l.5 2.3c.7 5 .6 9.8.6 14.7v14.6l-.5 91-.1 39.5v2.5L2 392H1C-.1 237.2-.1 237.2-.1 167v-45.7q0-6.1 1.1-12.3"/><path fill="#d64f4c" d="M95 1v2h23v1H95l1 2c3 .5 3 .5 6.6.7l3.7.2c3.6.2 3.6.2 7-.4q5.1-.7 10.4-.6h18.6q4.3 0 8.5.6 7.5.7 15 .3l14.1-.4q18-.8 36.1.6v2l63.2-.1h3.8c3 .1 3 .1 6 1.1v2h-5.7l-3.3-.1c-2.9 0-2.9 0-5 .6-2.8.7-5.4.3-8.2 0l-3.3-.2-2.5-.3 1 4h-3v-2l-5 3v-2l-1.9.3-2.4.3-2.4.4c-2.3 0-2.3 0-5.3-2v-2h-5.2l-3-.1q-3.9.2-7.8 1.1v2h-5v-2l-2.5 1.5c-4 1.7-7.4 1.8-11.7 1.6-5.5-.2-5.5-.2-10.8.9l-1-2-2.8.2q-11.6 1-23.4.7c-2.9 0-2.9 0-5.8 1.1v-2l-2.2.4-5.4 1.1c-2.5.5-2.5.5-5.4 1.5-1-3-1-3 0-6-6.4.2-10 .6-15 5-4.5.6-8.7-.6-13-2l-2 1-1.8-.5c-3.4-.8-6.2.3-9.5 1.1-3 .4-5 0-8-.6-5.2-1-9.4-.9-14.7 0v-2l-2 1c-4.7 1.6-9.5 1.8-14.4 2.3C66 18 64 19 61 21c-2.7 1.5-3.8 2-7 2l-5 4h-2c.5-4.5 1.8-6.8 5-10 5.7-4 12-6.2 18.6-8.2 2.3-.6 2.3-.6 3.4-1.8h5l-1-3c3-2 4-2.3 7.4-2.6l2.4-.2Q91.4.9 95 1"/><path fill="#003381" d="m7 449 4 1v2l3 1c1.2 3.6 1.2 3.6 2 7l2-3 1.4 3.7L23 470l3-1 1 3 2-4v6l4 1v2l2.4.3 2.6.7 2 4c2 1.3 2 1.3 4 2v4l3-1v4l3.4.9L54 493l1 2q5.1 1.8 10.6 2.5 6 .9 11.4 3.5v2l3.6-1.2c4.6-1.2 7.1.1 11.4 2.2 2.7.4 2.7.4 5 0l2-2 6 1 2.2-.6 1.8-.4 3 2c2.6.3 2.6.3 5.4.2h6.6l3.4-.1 11.6-.1 2.9-.6c4.6-.7 9 0 13.7.3q11.3 1 22.4-.7h3l1 2 1.7-.5q3.1-.7 6.4-.6h7.1q7 0 13.8 1.1l1-2v2h1.7l7.6-.5 2.7-.1 2.6-.2 2.3-.1 5.1-.1h4.9l2.6-.1q3.3 0 6.5 1.1v-2l2.7.6c3.2.4 5.2.2 8.3-.6v2l3-.5q6.4-.8 13-.5l1-2q3.5.1 7 1v2l2.8-.2q15.5-1 31-.8h3.1l2.8.1c2.3 0 2.3 0 4.3-1.1v2l6.7-.4 3.7-.3c3.5-.2 3.5-.2 6.4-.9 2.2-.4 2.2-.4 5.2.6a235 235 0 0 0 16.4.1h15.8c3.7.4 3.7.4 6.8-1.1h6v1h6.3l3.6.1c3.1 0 3.1 0 6.1-1.1l2.1.5c3.4.6 6.2.2 9.6-.2a69 69 0 0 1 9.3-.3v2c-8.3 3.9-17.6 3.2-26.6 3.2l-15.3.1h-12a24901 24901 0 0 1-179 .8h-10.6a3817 3817 0 0 1-73-.5c-15.1-.1-30-1.2-44.5-5.6l-5-1c-4.4-.8-8-2-12-4v-2l-2.3-.4C48 495 48 495 45 493v-2l-1.7-.7C41 489 41 489 39 486.6c-2.4-3-4.7-4-8.1-5.6l-2-2v2h-3a58 58 0 0 1-4.7-5.5l-1.3-1.7Q11.6 462.4 7 449"/><path fill="#053276" d="M402 199v15h13v15h-13l1 32h11v6.4l.1 3.7c-.1 2.9-.1 2.9-1.1 3.9l-8.1.3h-2.3c-5.3 0-8.9-.8-13.6-3.3-4.3-4.6-4.1-9.2-4.1-15.2l.1-27.8h-8v-15h7v-11l3-.6 3.8-.8 3.8-.8c2.3-.6 5-1.8 7.4-1.8"/><path fill="#bf2e30" d="M492 40h2c10 16.8 18.2 33.9 17 54h-3l-.4 1.9-.5 2.5-.5 2.4c-.6 2.2-.6 2.2-2.6 4.2q-4.2 1-8.5 1.6l-2.6.4a173 173 0 0 1-30.8 1.4h-92.5l-131.5-.2H106.4q-32.8 0-65.4-1.2v-2l-2.3.2c-2.7-.2-2.7-.2-4.5-1.7L33 102c3.2-1.6 5.7 0 9 1v2l3-.3 3.9-.3 3.8-.3c3.3-.1 3.3-.1 5.3.9v-2h2v2l1.7-.7c5-1.7 9-2.6 14.3-2.3h5l1 3 11 .2c4.8 0 8.6-.4 13-2.2l-1 3h3.8c7.6 0 7.6 0 11.2.2l2.3.2 10.7.6v-2l2.4.6 2.6.4 1-1h5l1-3c2.6-1.2 2.6-1.2 5-2v4c3.3 0 5.8 0 9-1v2l2.1-.6c3.5-.5 5.8.1 9.2 1l3.3 1 2.4.6v-2h9.3a34 34 0 0 0 9.7-1c2.8.4 2.8.4 5 1l-1-3 3-1v4l1.8-.3c6-.8 11-.4 17 1 2.2.5 2.2.5 4.2-.7h3l1 2 3-2c2.3-.2 2.3-.2 4.7-.1h2.4l1.9.1 1-2v2h2v2l1.7-.6c2.7-.5 4.6 0 7.3.6l1-2 1 1a70 70 0 0 0 8 1v-2h11l1-3 2 3 1-2 7-1 1 3 6.8.1 3.7.1c3.3-.2 4.7-.7 7.5-2.2h4l2 2 2-1 7 1h8l1 1 7 1v-2h28v2h10l1-2v2l5.8-.4 3.3-.3c3-.2 3-.2 5.9-1.3l3 .5c2.9.5 4.2.4 7-.5h3v-2l7-1 1 3h5v2l5-1v-3l5 1-2 1v2h5l1-5 6 1-1 2-3 1h8l1-1h7v-2l4.8-.5q1.4 0 2.7-.3 5.8-.4 11.5.8v2l3.4-1q6-1.3 12.2-1 4.7 0 9.4-1l-1 3c5.7-.5 5.7-.5 10-4h3c2.2-8 2.2-8 1-16v-4h-3l-1.5-11.7-.4-3.3-.4-3.3-.4-3a65 65 0 0 1-.3-7.7l-3-1c-1.1-3.3-1.1-3.3-2-7l-.6-2.4z"/><path fill="#f7f7f7" d="M293.2 428.6h2.5l13-.1h7.3c3.3 0 5.6.3 8.5 2 2.3 3.8 2 7.4 1.9 11.9v2.7l-.2 14.5-.2 14.4h-8v-18l-27 1v17h-9l-.3-32.5V434c1-6.1 6.5-5.5 11.5-5.4"/><path fill="#f9f8f8" d="m213 428 13.2-.3 4.1-.2c8.8 0 8.8 0 13 2.6 2 3.5 2.2 5.7 2 9.8v3.7q-.4 5.3-1.3 10.4l1 1v15h-2l-2 4h-28z"/><path fill="#f9f9f9" d="M119 428h7c1 1 1 1 1.1 4.3v19.3L127 464l10-1v-35h7c1 1 1 1 1.1 4.3v19.3L145 464l10-1v-35h7c1 1 1 1 1.1 2.8V442l-.1 32-30 .5h-2.5c-4 0-6-.2-9.5-2.4-2.8-4.3-2.6-7.6-2.5-12.6z"/><path fill="#a92b2a" d="m2 101 3 1v2q4.8 2.5 10 4l1.7.6c3.4.6 6.7.5 10.2.5H477q15.5.1 30.9-1.1v-2h2v5c-1.8 1.8-4.2 1.1-6.5 1.1H297l-163 .1H13c-8.8 0-8.8 0-12-3.2-.2-5.5-.2-5.5 1-8"/><path fill="#f9f9f9" d="M182.5 427.6h3.8l4 .1 4 .1 9.7.2v10l-24 1v7h24v10l-24 1v7h24v10l-13.2.3-3.8.1h-3.6l-3.4.2c-4.2-.8-5.5-2.1-8-5.6-.5-3-.7-5.4-.6-8.4V438c0-3.4.4-5.6 2.2-8.5 3.2-2 5.2-2 9-1.9"/><path fill="#f6f5f5" d="m376 428 13.3-.2 4.1-.2h6.7c2.9.4 2.9.4 5.3 2.1a9 9 0 0 1 2.1 7v8c0 3.8 0 6.5-2 9.9-3.9 2.2-7.8 2-12.2 2.1l-2.7.1-6.6.2v17h-8zM335 428l13.3-.2 4.1-.2h6.7c2.9.4 2.9.4 5.3 2.1a9 9 0 0 1 2.1 7v8c0 3.8 0 6.5-2 9.9-3.9 2.2-7.8 2-12.2 2.1l-2.7.1-6.6.2v17h-8z"/><path fill="#82545c" d="M118 426h6.4l3.7-.1c2.9.1 2.9.1 3.9 1.1l.1 7.5v2.3L132 461h3v-35h14c1 1 1 1 1.1 4.2v6.6L150 461h3v-35h14v49l-21.7.3-6.8.2h-8.2c-4.3 0-6.7-.1-10.4-2.4-2.7-4.4-2.5-8.1-2.4-13.2v-3l.3-15.5zm1 2-.5 31.5v2.7c0 4.2.2 6.3 2.5 9.9 4.1 2.6 7.2 2.5 12 2.4l30-.5.1-35v-8.2c.1-1.8.1-1.8-1.1-2.8h-7v35l-10 1v-3.2l.1-24v-2.4l-.1-5.4-1-1h-7v35l-10 1v-3.2l.1-24v-2.4l-.1-5.4c-1.2-1.4-1.2-1.4-4.6-1z"/><path fill="#76431e" d="M249 317h34v5l-4 1v3l.1 21.9v2.1l-.1 5-1 1h-7v-22h-4l.1 2.5v3.3l.2 3.2c-.3 3.4-.7 4.7-3.3 7-2.8.5-2.8.5-6 .5h-3c-3-.5-3-.5-5.3-2-2.3-3.3-2.2-5.6-2.2-9.5v-3.7c.5-3.3.5-3.3 2.3-5.7 3-2.2 5.5-1.9 9.2-1.6v-5h-25v2h3.3c3.7 0 3.7 0 6.7 1 1.2 2.3 1.1 3.7 1.1 6.3V345c-.1 1.9-.1 1.9-1.1 3.9-2 .4-2 .4-4.6.6l-2.5.3-1.9.1-1 6h-7l-1-2-1.6 2.5c-2.4 2.5-2.4 2.5-6.2 2.8l-3.2-.3c.5-3.8 1.5-6 4-9l-3-2c-1.5-3.6-1.1-7.4-1-11.2V330h2l1 17 3 1c-.6 3.5-2.1 6-4 9 2.3 0 2.3 0 5-1a45 45 0 0 0 4-5.5l1-1.5h1v6h5v-24h1l1 13h3v-12h2v5.4l.1 3c-.1 2.6-.1 2.6-1.1 4.6h-3v3h7v-21h-10v-6l22.6-.1h3.6c2.8.1 2.8.1 3.8 1.1l.1 6.9v5.5q.2 6.9-1.1 13.6l2-1c1-3 1.3-5.5 1.6-8.7l.2-3 .2-2.3h3v-2l-3-2h6v-7h-6v-1h8l2 32 1-31 5-1v-3h-33z"/><path fill="#e8853b" d="M191.3 304.5h3l3.3.1h3.2c7.8.1 7.8.1 11.2 2.4.3 2.2.3 2.2.2 4.6v2.5l-.2 1.9h-7v-5h-15l2-3q3.8-.4 7.4-.4h2.1c3 0 5 0 7.5 2l1 1.4v-3c-2.4-1.2-3.9-1.1-6.6-1.1H195l-7 .1-2 13h12.8l2.7-.1h2.6c1.9.1 1.9.1 2.9 1.1v21.3l-.1 3.5q.2 4.5 1.1 9.2h2v-33c6.1-1.2 11.7-1 18-1v23l-6 1v-15h3v-3h-7v2h-2l1-3c6.2-.9 6.2-.9 8-1 1 1 1 1 1 3.6v2.4h-3v13l4-1v-20h-16v33h-7v-5l-3.8.2c-2.6.1-3.7.1-5.8-1.4-1.8-2.3-1.8-3.5-1.7-6.4v-8.3c.1-6.8.1-6.8 1.3-9.1q4-.7 8-1c-3 2-3 2-6 2l1 18 2 1v-15h1v14h4v-22h-15v33h-7v-33l-4-1v-5h4l-.2-3.7c-.3-3 0-4 1.9-6.4 2.8-2.3 4-2.4 7.6-2.4"/><path fill="#003383" d="M510 406h1l.3 16.4c0 7.7-.8 14.3-3.3 21.6l-1.2 3.5q-4 10.7-9.8 20.5l-1.6 2.8-1.4 2.2h-2l-2 5h-2l-.8 1.8c-1.4 2.5-2.9 3.9-5 5.7a38 38 0 0 0-6 5.9c-3.1 2.3-5.9 2-9.6 2.3a23 23 0 0 0-8.8 3.3c-1.8 1-1.8 1-5.2 2.1-2.8.6-2.8.6-3.6 2.9a74 74 0 0 1-17 1c4.6-4.6 9.9-5.5 16-7 4.2-1 7-1.8 10-5l5-1 2-2 2.8-.4c3.8-.7 5.4-2 8.2-4.6l3-5c2-2.3 2-2.3 4-4h2v-5h2v-2h2v-5l3-1 1-4 2.9-4.5c4-6.4 5.5-13.1 6.5-20.5q.9-4.4 2.7-8.4l1-2.6.9-2-2-1 1-8 4-1z"/><path fill="#6e4220" d="M332 317c-3.3 1.1-6 1.2-9.4 1.3l-3.8.1-4 .2-11.5.6 3 .2 3.1.3c2.6.3 2.6.3 4.6 1.3v5.3l.1 2.9q0 3.6-1.1 6.8l3-1 1-14h7c1 1 1 1 1 4v4q0 13 1 26l2 1h-6c-1-1-1-1-1.1-4.6l.1-12.4h-14v11h4v-8h7l.3 8.3c-.3 2.7-.3 2.7-1.4 4.5-2.7 1.7-4.8 1.6-7.9 1.6h-3.2c-2.8-.4-2.8-.4-4.5-1.6-1.9-2.6-1.6-4.5-1.6-7.8v-3.5l.1-3.7v-3.7l.2-9.1h7v6h4v-10h-7l-3.8.1c-3.2-.1-3.2-.1-4.2-1.1v-5l24.6-.9h2q5-.4 9.4.9"/><path fill="#b42626" d="m508 92 1 2h2v16l-1-4h-2v2c-8.9 4.4-23.6 2.1-33.4 2.1h-39.4l-144.4.1h-2.2l-214.5.2H35.5c-23.3 0-23.3 0-29.3-4.9C5 104 5 104 5 102l-2-1c4.6-3 4.6-3 8-3l-1 7 1.7-1c2.6-1.1 4.5-1.2 7.3-1v2h2v2a364 364 0 0 0 38.4 1.1h167.3l245 .2q16.2 0 32.3-2.3a123 123 0 0 0 4-14"/><path fill="#73421e" d="M339.3 321h6.7v17.6l-.1 3.7v3.4q.2 4.7 1.1 9.3h2v-33a56 56 0 0 1 12.3-1h6.7l1 5-3 2-1 1 4 1v25l4 1h-5c-1-1-1-1-1.1-3.3v-13.2l.1-8.5-4 1-.3 10.8.3 6.2 3 2-1 5c-6.5.4-6.5.4-8.7-1.1-1.9-2.7-1.6-4.7-1.6-7.9v-3.5l.1-3.7v-3.7l.2-9.1c3-1.6 4.9-2.2 8.3-2.1l3.7.1v-2h-17v33h-7v-5l-1.9.1h-2.5l-2.4.2-2.2-.3c-2.1-3.2-2.2-4-2.2-7.6v-8.3c0-6.8 0-6.8 1.2-9.1q4-.7 8-1c-3 2-3 2-6 2l1 18 2 1v-15h1v14h4v-22h-14v32h-1v-33c4-1 7.2-1.1 11.3-1"/><path fill="#114f9e" d="M0 395h1l1 7 262 1v1a7130 7130 0 0 1-232.8 2.1h-9.1C20 406 20 406 18 405c-4-.3-4-.3-8 0l-3 3c-3.7.2-3.7.2-7 0z"/><path fill="#563d2a" d="m457 311 2.2 2.4c2.8 2.6 4 3.3 7.8 3.6v5l-5 1v33h-7v-33h-4v33h-7l-1-9-1 2c-4 6.7-4 6.7-7.2 7.6-2.2 0-2.2 0-5.8-.6.5-4.3 2-6.6 4.7-10 3-3.7 3-3.7 2.8-8.4L435 335l-1-3-5-1c-1.1-3.7-1.1-3.7 0-6 8.2.2 8.2.2 11.5 3.4l2.5 4.6 1-10h-18v33h-7v-33h-4v32h-1v-33h7v33h4v-33a41 41 0 0 1 11.5-1H447l.3 10.5c-.3 3.6-.8 5-3.3 7.5l-1.2-2.2-1.6-2.8-1.6-2.8-1.6-2.2h-3l1.9 1.1c2.7 2.5 3.3 4.3 4.1 7.9a38 38 0 0 1-2 8l3-1 1-2h3l2 12h2v-33h7v33h4v-33l5-1v-3l-2.2.3c-2.8-.3-2.8-.3-5.1-2.7-1.7-2.6-1.7-2.6-1.7-4.6"/><path fill="#011e47" d="M108 435c5.6-.2 5.6-.2 9 2 .4 3 .4 3 .3 7v21.5c.8 4.3 2.5 5.7 5.7 8.5v2h28l-2 4-29.4.3h-2.5c-5.7 0-5.7 0-7.8-1.7-1.3-1.6-1.3-1.6-1.3-3.6h-2l-.2-26.9V446c0-4 .4-7.2 2.2-10.9"/><path fill="#023783" d="m116 431 1 4-2-1h-7c-2.6 3.9-2.3 8-2.3 12.6l-.2 20.8v2.5c0 3.5.2 5.7 2.3 8.6 2.2 1.7 2.2 1.7 5.2 2.5v2l30.2-.3h2.5c2.7 0 2.7 0 6.3-.7 2.1-2.4 2.1-2.4 3-5 2.3.3 2.3.3 5 1l1.3 2c1.6 2.3 1.6 2.3 4.5 2.5h11l3.9.1c7.6.2 7.6.2 14.2-3.1l2.1-2.5 2.3 2c5.4 4 11.1 3.2 17.6 3.3h9.4c3.2-.4 5-1.3 7.7-3.3l1-3h2c-1 3.8-2.5 6-5.8 8.2-5.2 2-11.1 1.2-16.6 1h-4l-9.6-.2v-2c-4.7-.3-4.7-.3-9 1h-12l-14-.3h-2.2c-3.4 0-5.6.2-8.7 1.8-4.3 2-8 2-12.6 2h-2.8l-14.4.2H117a16 16 0 0 1-12.6-5 14 14 0 0 1-3.7-9.8v-29.6c0-5.9 0-5.9 1.7-8l1.6-1.3 1.7-1.7c3.5-2 6.3-1.5 10.3-1.3"/><path fill="#e9ebe6" d="M218 229c3.4 1.7 5.4 2.9 7.1 6.3a27 27 0 0 1-.4 17.7c-2.7 4.7-2.7 4.7-4.7 6-5 1.2-6.8 1.6-11.4-.7-3.5-3-4.5-4.5-5-9.1v-4.5l-.1-2.3c0-4 .3-6.6 2.9-9.9 4-3.8 6.2-4 11.6-3.5"/><path fill="#002f76" d="M273 184v4h-15v82h11l5 1v4l-20-1v-89c15-1 15-1 19-1"/><path fill="#98595a" d="M294.8 425.3h23.8c4 0 6 .4 9.4 2.6 2.9 4.4 2.6 8 2.5 13.2v3l-.3 15.5-.2 15.4h-13v-1h9l-.5-31.7V437l-.1-2.2c-.5-2.5-1.4-3.4-3.4-4.9q-4.2-.4-8.3-.4h-2.5l-18 .1h-2.4c-4.4-.1-4.4-.1-7.8 2.3-.3 1.9-.3 1.9-.3 4v2.6l-.1 2.8v2.8L282 474h9v-17c2.6-1.3 4.5-1.1 7.4-1.1h10.2l8.4.1v1h-23v18h-13l-.5-33.9v-2.8c0-4.4.1-6.7 2.5-10.4 4-2.6 7.1-2.6 11.8-2.6"/><path fill="#744b2c" d="M419 316v2l-22 1 2 2c.3 2.4.3 2.4.4 5.4v3.2l.2 3.4q0 3.3.2 6.6v3c0 2.4 0 2.4 1.2 4.4h3l-2-2c-.2-2.3-.2-2.3-.2-5.2v-6.4l.1-3.3.1-8.1c3.5-2 4.6-2 9-2l1 31 2 1v4h-6l-1-5h-3.9c-3.9.1-3.9.1-6.1-1-1-3.1-1.1-5.3-1.1-8.5v-10.1l.1-8.4-4-1v-5l11.3-.5 3.2-.1 3-.2 3-.1z"/><path fill="#d71f1f" d="m183.3 425.5 23.7.5v13h-23v5h14.7l3.2-.1h2.9c2.2.1 2.2.1 3.2 1.1l.1 8.5c-.1 2.5-.1 2.5-1.1 3.5l-5.1.1H192l-8.1-.1v5h23v13a878 878 0 0 1-27.6.6c-3.4-.6-3.4-.6-6.3-2.6-2.8-4-2.8-7-2.8-11.8v-23.8c0-4.1.4-6 2.8-9.4 3.7-2.5 5.8-2.6 10.2-2.5m-9.7 4c-2.3 3.5-2.2 6.8-2.2 10.8V463c0 3.9.5 6 2.7 9.1 3.5 2.4 5.2 2.6 9.3 2.5h3.6l3.8-.2h3.8l9.4-.3v-10h-24v-7l24-1v-10h-24v-7l24-1v-10l-13.7-.2-4-.2H179c-3 .2-3 .2-5.4 2"/><path fill="#e48d4d" d="m427 318-.5 1.5q-.8 5-.8 10.1v2.2L425 355h-4v-33h-7v30l-2 1c-1.5-3-1.1-5.7-1.1-9l.1-24-8 2-.3 20.5c.4 2.9 1 3.7 3.3 5.5-2.4.2-2.4.2-5 0-2.2-3.3-2.3-4.5-2.3-8.4v-3.2l-.3-10v-2.9c-.5-2.9-1.2-3.7-3.4-5.5l11.5-.6 3.3-.1a81 81 0 0 1 17.2.7"/><path fill="#d82121" d="M118 426h13v37h-1v-36h-11l.4 32.4v2.7c0 3.7.2 6.2 2 9.5 3.8 2.1 7.3 2 11.5 2h2.3l8.6.1 19.2.3-1-45-7-1v35h-5l4-1v-36h13v49l-21.7.3-6.8.2h-8.2c-4.3 0-6.7-.1-10.4-2.4-2.7-4.4-2.5-8.1-2.4-13.2v-3l.3-15.5z"/><path fill="#011d45" d="m277.6 435.9 2.4.1v17.7c.1 18.9.1 18.9-2 25.3h-6c-2.5-2.5-2.3-4-2.3-7.3v-23c0-5.4 1.5-12.5 8-12.8"/><path fill="#0b3876" d="m281 431 1 50c-5.6 3.4-5.6 3.4-10.3 2.7l-2.7-.4q-1 0-2-.3c-1-2.7-1.1-4.3-1.1-7.1v-2.6l-.1-26V440c.2-1.9.2-1.9 2.2-4.9 5.2-3.5 6.3-4 13-4m-8.2 6.8c-3.2 4-3 8-3 12.9v21c-.2 4-.2 4 2.2 7.3 3 .2 3 .2 6 0 3-9.2 2.1-19.7 2-29.2V436c-4-.3-4-.3-7.2 1.8"/><path fill="#ed883d" d="M299 318h15.7l3.3-.1h3.1q4 .2 7.9 1.1l10.2-.3c3.3 0 5.3 0 8 1.9 2.5 3.3 2.3 5.6 2.2 9.8L349 355h-2c-1.7-4.5-2.2-8-2-12.7l.2-3.8c0-2 0-2 .2-3.9l.1-4 .5-9.6-18 1v33h-2c-1.1-2.3-1.2-3.7-1.3-6.2l-.1-2.5-.2-2.7v-2.8q-.6-9.3-.4-18.8l-7-1v5.9l.1 3.3c-.1 2.8-.1 2.8-1.1 4.8l4 1h-7l1-15-10-.6c-3-.4-3-.4-5-2.4"/><path fill="#e21a1b" d="m375 426 15.7-.4 5-.1h3.8l4-.2c3.5.7 4.2 1 6.4 3.5 2 3 2.7 4.3 2.8 7.7v7.5c0 4-.4 7.2-2.6 10.6-4.3 3.4-7.6 3-13 2.8l-2.6-.1q-3.2 0-6.5-.3v18h-13zm1 2v46h8v-17h4l5.3-.2h2.6c3.7-.2 6.4-.4 9.7-2.2 2.2-4.1 2-8 1.9-12.6v-7.8c-.7-3.1-1.9-4.3-4.5-6.2-3-.5-3-.5-6.3-.4h-3.3l-4.1.1z"/><path fill="#e21a1a" d="m334 426 15.7-.4 5-.1h3.8l4-.2c3.5.7 4.2 1 6.4 3.5 2 3 2.7 4.3 2.8 7.7v7.5c0 4-.4 7.2-2.6 10.6-4.3 3.4-7.6 3-13 2.8l-2.6-.1q-3.2 0-6.5-.3v18h-13zm1 2v46h8v-17h4l5.3-.2h2.6c3.7-.2 6.4-.4 9.7-2.2 2.2-4.1 2-8 1.9-12.6v-7.8c-.7-3.1-1.9-4.3-4.5-6.2-3-.5-3-.5-6.3-.4h-3.3l-4.1.1z"/><path fill="#c8262a" d="m212 426 15.7-.4 5-.1h3.8l4-.2c3.6.7 4.2 1 6.4 3.5 2.5 3.8 2.7 5.8 2.5 10.3v3.6c-.4 3.3-.4 3.3-1.6 6l-.8 2.3 2 3c.4 3.4.4 3.4.4 7.3l.2 4c-.7 4.3-2.2 7-5.6 9.7-3.5.7-3.5.7-7.5.6h-3.9l-5-.2-15.6-.4zm1 2v46h28l2-4h2v-15l-1-1 .4-2.7q.8-5.7 1-11.4l.1-3.6c-.3-3.4-.3-3.4-2.2-6.2-5.4-3.4-10.9-2.6-17.1-2.4z"/><path fill="#e8863e" d="M282 318v3l-4 1-1 32-2-1c-1.2-21.5-1.2-21.5-1-32l-2 1 .1 3.4c-.1 3.6-.1 3.6-2.1 5.6l-1 2h-3v2.3l.1 3 .1 2.9c-.2 2.8-.8 4.4-2.2 6.8h-2v-26l-27-1 1-2q23-1.1 46-1"/><path fill="#503a28" d="M233 322h28v7l-10 1 .4 8.4.2 2.5c-.2 3.9-.2 3.9 1.4 7.1l5 .6 2.8.2 2.2.2v1l-5.2.3h-3c-2.8-.3-2.8-.3-5.1-1.9-2.3-3.2-2.2-5.5-2.2-9.4v-3.7c.5-3.3.5-3.3 2.3-5.7 3-2.2 5.5-1.9 9.2-1.6v-5h-25v2h3.3c3.7 0 3.7 0 6.7 1 1.2 2.3 1.1 3.7 1.1 6.3V345c-.1 1.9-.1 1.9-1.1 3.9-2 .4-2 .4-4.6.6l-2.5.3-1.9.1-1 6h-7l-1-2-1.6 2.5c-2.4 2.5-2.4 2.5-6.2 2.8l-3.2-.3c.5-3.8 1.5-6 4-9l-3-2c-1.5-3.6-1.1-7.4-1-11.2V330h2l1 17 3 1c-.6 3.5-2.1 6-4 9 2.3 0 2.3 0 5-1a45 45 0 0 0 4-5.5l1-1.5h1v6h5v-24h1l1 13h3v-12h2v5.4l.1 3c-.1 2.6-.1 2.6-1.1 4.6h-3v3h7v-21h-10z"/><path fill="#c42f2f" d="M28 33c.8 5.4-2.1 8.8-5 13.1A31 31 0 0 0 17 66v13l-1-3h-2l-2-9-3 6H7l-1 4-2-1c.5-10.7 11-43 24-43"/><path fill="#022557" d="M108 435c5.6-.2 5.6-.2 9 2a40 40 0 0 1 .4 9.2l.2 15.5v4c.4 3.4 1 4.8 3.4 7.3-2.4-.2-2.4-.2-5-1-2.4-3.4-2.2-6.5-2-10.5l.2-3.8.2-4 .1-4 .5-9.7-5-1-1 36c4.4 2.2 7.5 2.3 12.2 2.2h22.2c4 0 4 0 7.6-1.2l-2 4-29.4.3h-2.5c-5.7 0-5.7 0-7.8-1.7-1.3-1.6-1.3-1.6-1.3-3.6h-2l-.2-26.9V446c0-4 .4-7.2 2.2-10.9"/><path fill="#50321c" d="m356 326 7.8.7 2.2.3-1 2 4 1v25l4 1h-5c-1-1-1-1-1.1-3.3v-13.2l.1-8.5-4 1-.3 10.8.3 6.2 3 2-1 5c-6.5.4-6.5.4-8.7-1.1-1.8-2.7-1.7-4.6-1.6-7.8v-10.9c.1-9 .1-9 1.3-10.2"/><path fill="#011f4a" d="M295 458h20l.1 9.3v3l.1 2.3v2.3c-.2 2.1-.2 2.1-2.2 5.1-3.5.4-3.5.4-7 0-2.2-3.3-2.4-4.8-2.6-8.7l-.3-3-.1-2.3-7-2z"/><path fill="#e97c2b" d="M218 327h7v3h-3v15l7-3 .1-1.9.2-2.5.2-2.4c.5-2.2.5-2.2 3.5-4.2v24h-5l-1-5-1.1 1.8-1.6 2.2-1.5 2.3c-1.8 1.7-1.8 1.7-4.5 2l-2.3-.3 3.1-5.2c1.1-2 1.1-2 .9-4.8l-2-1c-1.2-3.6-1.4-7-1.6-10.7v-2.1l-.4-5.2h2z"/><path fill="#023988" d="M347 457h17v1h-16v6h4v-2h4l1-3 4 1 1 20h10l2-6 5 2c0 3.3-.2 6-2.3 8.6-2.6 2.2-4.6 3.4-8 3.4-4.7-.9-7.8-2-10.7-6q-.6-3.8-.7-7.7l-.1-2.2-.2-5.1h-9v7h-1z"/><path fill="#05234c" d="M169 434h1v3.1l.3 23.8v2.2c.1 4 .5 5.7 3.2 8.8l2.5 2.1v2h17l-1 4c-4 2-9.4 1.2-13.9 1.2h-9.5a12 12 0 0 1-6.6-2.2l-1-3 6-2v-3.6l.7-26.8v-2.5c.2-6 .2-6 1.3-7.1"/><path fill="#c5773d" d="M189 310q4 0 8 .4l2.4.2 5.6.4v5h44v2h12v1h-2.2l-10.1.4-3.5.2h-3.4l-3.2.2c-2.7.1-2.7.1-5.6 1.2l-1 6h-1l-1-7q-15.5-1.2-31-1h-2.6l-2.3.1q-3-.2-6.1-1.1v-7z"/><path fill="#f08d44" d="m188 306 9.8-.1h2.8l2.7-.1h2.5c2.2.2 2.2.2 5.2 2.2.2 3.6.2 3.6 0 7l-.9-1.9c-1-2.2-1-2.2-3.1-4.1q-3.8-.3-7.4-.2h-2.1c-3.7 0-5.3 0-8.5 2.2-.7 3.6-.7 3.6-1 7h2q20-.3 40 1v3l-1-1-4.3-.1h-5.3l-9.4.1v34h-2a32 32 0 0 1-2.2-12.7v-7.7l.1-4 .1-9.6-20-1c0-9 0-9 2-14"/><path fill="#25457f" d="m47 191 2 1v81h15l1-49 2 1-1 50H47z"/><path fill="#dd7f3a" d="M447 306c2.7-.3 2.7-.3 6 0 2.2 2.4 2.2 2.4 4 5.4 2.5 4.3 2.5 4.3 6.7 6.4l2.3.2v3l-4 1-1 33h-4v-33h-7l3-1v-3h2l-2-2.2c-2-2.8-2-2.8-2-6.8l-4-2z"/><path fill="#553b26" d="M434.2 320.9h7l5.8.1.3 10.5c-.3 3.6-.8 5-3.3 7.5l-1-2c-3.4-6.5-3.4-6.5-9.4-10.1l-3.6-.9v-1c7.4.4 7.4.4 10.4 3.4l2.6 4.6 1-10h-18v33h-7v-33h-4v32h-1v-33h7v33h4v-33c3.4-.7 5.9-1.1 9.2-1.1"/><path fill="#244681" d="M318 456v18h-2v-16h-21l1 7 2.4-.1c2.6.1 2.6.1 4.6 2.1l.5 5.9c.2 3.9.5 6.7 2.5 10.1l7 .1c2 .1 2 .1 3-1.1a210 210 0 0 1 16 0l3-6a9 9 0 0 1 1 4c-1.6 2.6-1.6 2.6-4 5-3.1.6-3.1.6-6.6.7q-6.6 0-12.8 1.7c-3.4.7-5.5.7-8.6-.9-4.4-3.7-4.3-9.3-4.8-14.6l-.2-2.9-3-1-1 6h-1v-17l11.4-.5 3.3-.1 3.2-.2 2.9-.1z"/><path fill="#3f5386" d="M252 183c29.9 0 29.9 0 41 7l-1 6-3-1.3-4-1.6-2-.9a45 45 0 0 0-13-3.2l3-1v-4h-20v92h-1z"/><path fill="#553c28" d="M228 321v23l-6 1v-15h3v-3h-7v2h-2l1-3c6.2-.9 6.2-.9 8-1 1 1 1 1 1 3.6v2.4h-3v13l4-1v-20h-16v33h-7v-5l-3.8.2c-2.6.1-3.7.1-5.8-1.4-1.8-2.3-1.8-3.5-1.7-6.4v-8.3c.1-6.8.1-6.8 1.3-9.1q4-.7 8-1c-3 2-3 2-7 2l.4 9.3.2 2.7v2.6l.2 2.3a12 12 0 0 0 1.2 5.1l8 1v5h5v-33c6.1-1.2 11.7-1 18-1"/><path fill="#442e1d" d="m184 306 2 1-2 10-5 1v3l5 1v33h4v-33h17v24h-6v-15h1v14h4v-22h-15v33h-7v-33l-4-1v-5h4l-.1-3.8c-.1-3.5 0-4.1 2.1-7.2"/><path fill="#f19551" d="m427 318-.5 1.6q-.8 4.7-.8 9.6v2L425 353c-2-2-2-2-2.2-5v-5.8l.2-21.2c-3.3-1.6-7-1.4-10.6-1.6h-2.5l-5.9-.4c-1.6 4.7-1.2 9.5-1.2 14.5l-.1 3.2v5.9c.4 2.8 1.1 3.7 3.3 5.4-2.4.2-2.4.2-5 0-2.2-3.3-2.3-4.5-2.3-8.4v-3.2l-.3-10v-2.9c-.5-2.9-1.2-3.7-3.4-5.5l11.5-.6 3.3-.1a81 81 0 0 1 17.2.7"/><path fill="#5f6a76" d="M135 426h1l.2 28v2.3q0 2.8-.2 5.7l-2 2h-7l-1-35-7-1v-1h13v34h3z"/><path fill="#e9eae6" d="M356 247c.6 8.9.6 8.9-1.4 12.6A23 23 0 0 1 342 262l-3-2c-.4-3.4-.4-3.4 0-7 2.7-2.6 5.5-3.7 9-4.7l2.7-.7c2.3-.6 2.3-.6 5.3-.6"/><path fill="#eee8e2" d="m279 241-2 3h6l-1 2-3 1h6l-1 6-6.4 2-3.6 1.1c-3 .9-3 .9-5 .9l1-4h-5l-2-8 8.1-3.1c2.8-.9 5-1 7.9-.9"/><path fill="#d57a38" d="M367.9 318H378v3h-4v35l-3-1c-1.5-3-1.2-6-1.3-9.2v-2.1l-.4-11.4-.3-11.3-18-1v-1c5.6-1.2 11.1-1.1 16.9-1"/><path fill="#ede2dd" d="m272 206 2 4 1.4-2 1.6-2h2l-1 5 5-2-2 4h-2v2l2.4-1.5c2.6-1.5 2.6-1.5 4.6-1.5a18 18 0 0 1-8 9q-3.9 1.4-7.8 2.4c-2.2.5-2.2.5-4.2 1.6v-3l3-1a70 70 0 0 0-6-10h3l1 3h2l.4-2.9c.6-3.1.6-3.1 2.6-5.1"/><path fill="#c83836" d="m45 16 2 1v4c-2.1 2.1-2.1 2.1-4.9 4.2l-2.7 2C37 29 37 29 35 30l-1.4 3.5L32 37l-3 1-2 5-3 6-1 2.1-1 2.2-1 2C20 57 20 57 17 58c.6-4 1.8-6.6 3.9-10l1.5-2.5 3.3-5.1c1.7-2.4 1.7-2.4.5-5.2C26 32 26 32 27.5 30A77 77 0 0 1 41 19h2v-2z"/><path fill="#a05720" d="m429 325 5 1 1 3 2 1.3c2.7 2.3 3.2 4.2 4 7.7a38 38 0 0 1-2 8l5-1c-5.5 10.5-5.5 10.5-9.2 11.7-2.2 0-2.2 0-5.8-.7.5-4.3 2-6.6 4.7-10 3-3.7 3-3.7 2.8-8.4L435 335l-1-3-5-1c-1.1-3.7-1.1-3.7 0-6"/><path fill="#022c68" d="M366 458v19h7v-10h1l.1 5.3.1 3c-.2 2.7-.2 2.7-2.2 5.7-2.3.3-2.3.3-5 .3l-2.8-.1c-2.2-.2-2.2-.2-3.2-1.2l-.1-4.5v-8.4l.1-7.1h-4l-1 2h-4v2h-4v-6l7.9-.6 2.2-.1c5.7-.4 5.7-.4 7.9.7"/><path fill="#61364c" d="M293 438h25v7h-25z"/><path fill="#e6e8e5" d="M155 227c3.5 1.7 4.8 2.7 7 6v4h-21c1-5 1.3-5.9 5-9 3-1.5 5.6-1.2 9-1"/><path fill="#edede7" d="M448 227c3 1.6 3 1.6 5 4l1 6h-21c2.7-8.1 6.4-11.7 15-10"/><path fill="#01265a" d="m209 471 1.4 2c4 3 8 2.7 12.8 2.8h2.9l6.9.2c-1.7 3.9-1.7 3.9-4 5l-5.9.1h-11l-9.1-.1-2-5 2.9-.8c3.4-1 3.4-1 5.1-4.2"/><path fill="#cf4645" d="M232 49c2 1.6 2 1.6 3 4 0 3.7-.2 6-2.6 9a17 17 0 0 1-9.4 1c-2-2-2-2-2.4-5.9.1-3 .3-4 2-6.6 3.3-2 5.5-2 9.4-1.5"/><path fill="#e87e2f" d="M448 324h2v31h-2l-2-12h-3l-1 3h-3l.7-3.6c.5-4.5-.5-7.4-2.7-11.4-2-2.4-2-2.4-4-4 3.2.3 4.6.6 6.8 3l1.5 2.6 1.6 2.5 1.1 1.9 4-2z"/><path fill="#e27829" d="M301 328h5v7l3 1-1 2h-2v13h5l1-8h5v4.4l.1 2.4c-.1 2.2-.1 2.2-1.1 4.2l-4.8.1-2.7.1c-2.5-.2-2.5-.2-5.5-2.2-.4-2-.4-2-.5-4.4v-2.7l-.1-2.8-.2-5.4v-2.4q-.3-3.2-1.2-6.3"/><path fill="#5c412c" d="M361.3 321h6.7l1 5h-10v-1h8v-2h-17v33h-7v-5l-1.9.1h-2.5l-2.4.2-2.2-.3c-2.1-3.2-2.2-4-2.2-7.6v-8.3c0-6.8 0-6.8 1.2-9.1q4-.7 8-1c-3 2-3 2-7 2l.4 9.3.2 2.7v2.6l.2 2.3a12 12 0 0 0 1.2 5.1l8 1v5h5v-33a56 56 0 0 1 12.3-1"/><path fill="#022b66" d="M280 434v2l-2.8.7c-3.9 1.6-4.5 2.5-6.2 6.3q-.4 4-.3 8v2.2l.2 12 .1 11.8 7 2 1-14h1l.6 7.4.2 2q.2 3 .2 5.6c-2.4 2.4-3.2 2.3-6.5 2.3h-2.4l-2.1-.3c-2.5-3.7-2.3-6.5-2.2-10.8v-21.4c.1-9.7.1-9.7 4-13.6 3.2-2.2 4.4-2.8 8.2-2.2"/><path fill="#666" d="M155 427h11v47h-3l-1-45-7-1z"/><path fill="#583316" d="M300 327h7v6h5v1h-6v-6h-5l1 1.7c1.1 2.6 1.2 4.3 1.2 7v5.6l-.1 2.8-.1 6.9 13 2 1-11h-5v6h-1v-7h7l.3 8.3c-.3 2.7-.3 2.7-1.4 4.5-2.7 1.7-4.8 1.6-7.9 1.6h-3.2c-2.8-.4-2.8-.4-4.5-1.6-1.9-2.6-1.6-4.5-1.6-7.8v-3.5l.1-3.7v-3.7z"/><path fill="#dc8545" d="M343 326v19l-5 1 4 2c-4.7-.7-4.7-.7-7-3-.2-1.9-.2-1.9-.2-4.1v-5l.1-2.6.1-6.3c5.8-2.1 5.8-2.1 8-1M204 326v19l-5 1 4 2c-4.7-.7-4.7-.7-7-3-.2-1.9-.2-1.9-.2-4.1v-5l.2-8.9c5.8-2.1 5.8-2.1 8-1"/><path fill="#b31e1e" d="M10 98c1.3 2.7.7 4.2 0 7l1.7-1c2.6-1.1 4.5-1.2 7.3-1v2h2v2l38 2v1l-22 .2c-24.7.4-24.7.4-30.8-4.7C5 104 5 104 5 102l-2-1c3.6-3 3.6-3 7-3"/><path fill="#2a4668" d="M211 426h1v47h-3l-2 1v-12h-23v-5h23v1h-22v3l25-1z"/><path fill="#2b4e7b" d="m154 424 6.4-.1 3.6-.1c3 .2 3 .2 5 2.2l6 1-1.5 1.5c-2.2 3.6-2 7-2 11.2L171 469h-1l-1-34-1 39h-1v-48h-13z"/><path fill="#0d2b54" d="m330 431 1 2h2v17.4c.2 20.1.2 20.1-1 26.6l-2 2c-3.1-.4-3.1-.4-6-1v-2l5-1z"/><path fill="#dfdfdf" d="M155 428h7c1 1 1 1 1.1 2.8V458l-.1 16h-39v-1h37v-43h-6z"/><path fill="#13396e" d="M176 475h30v1h-5l2 5 12.8-.2h3.6l3.5-.2h3.3c3.4-.4 3.4-.4 6.8-4.6h-20v-1h30v1h-8l-.2 1.8c-1.2 3.2-2.8 3.7-5.8 5.2-2.7.4-2.7.4-5.6.4h-15.8c-3.2-.5-5-1.4-7.6-3.4l-1-4h-23z"/><path fill="#e2e2e2" d="M290 437h24v1h-21v7h23v3l-12.9.1h-3.7l-3.5.1h-3.3c-2.6-.2-2.6-.2-4.6-2.2v-7h2z"/><path fill="#022353" d="m277.6 435.9 2.4.1-1.8.8c-2.4 1.3-3.6 2-5.2 4.2q-.5 4-.5 8v2.3l-.3 12.4-.2 12.3h4l.4-3.6q.8-5.9 2.6-11.4c1 3.3 1 6 .6 9.6l-.2 2.8c-.4 2.6-.4 2.6-1.4 5.6h-6c-2.5-2.5-2.3-4-2.3-7.3v-23c0-5.4 1.5-12.5 8-12.8"/><path fill="#bf2a2b" d="M281 431h1v43h9v-17c2.6-1.3 4.5-1.1 7.4-1.1h10.2l8.4.1v1h-23v18h-13z"/><path fill="#c56721" d="M218 327h2l.1 3.9.4 7.5v2.5l.2 2.2c.2 2.1.2 2.1 2.3 3.9l7 2 1 6h-3l-1-5-1.1 1.8-1.6 2.2-1.5 2.3c-1.8 1.7-1.8 1.7-4.5 2l-2.3-.3 3.1-5.2c1.1-2 1.1-2 .9-4.8l-2-1c-1.2-3.6-1.4-7-1.6-10.7v-2.1l-.4-5.2h2z"/><path fill="#002d79" d="m499 465-2.4 4-1.3 2.3-1.3 1.7h-2l-2 5h-2l-.6 1.6q-3 4.9-7.4 8.4h-3c.4-5.4 2-7.4 6-11l1.6-2.2c1.4-1.8 1.4-1.8 4.4-2.8l1-3h2l.4-2 .6-2c2.5-1.2 3.4-.8 6 0"/><path fill="#a75619" d="M193 321h14v17.6l-.1 3.7v3.4q.2 4.7 1.1 9.3h-3v-5h-8c-1.7-3-2.2-5.1-2.2-8.5v-5.2l.1-2.7.1-6.6h1l1 18c3.9 2.5 3.9 2.5 8 1v-24h-12z"/><path fill="#e58034" d="m236 319 12.3-.1h3.5l3.4-.1h3.2c2.6.2 2.6.2 5.6 2.2.3 2.4.3 2.4.2 5.1v2.8l-.2 2.1 6-1-1 3h-3v2.3l.1 3 .1 2.9c-.2 2.8-.8 4.4-2.2 6.8h-2v-26l-27-1z"/><path fill="#c8c8c8" d="m213 428 13.2-.3 3.8-.1c9.1-.2 9.1-.2 13.3 2.5 2 3.5 2.2 5.7 2 9.8v3.7q-.4 5.3-1.3 10.4l1 1v15h-1l-.1-3-.3-3.8-.2-3.8c-.2-3.5-.2-3.5-2.4-6.4.3-2.2.3-2.2 1-5l.6-7.8V438l.4-5.1-4-1v-2h-26z"/><path fill="#ca681f" d="M357 327h2c1.6 2.9 2.3 5 2.4 8.3l.1 2.4.1 2.6.1 2.5.3 6.2 4 2-1 5c-3.4-1.2-5.8-2.1-8-5-.3-2.5-.3-2.5-.3-5.5v-3.3l.1-3.4v-3.4z"/><path fill="#da2526" d="M230.2 456h5.8v7a25 25 0 0 1-9.2 1H221v-7c3.3-1.1 5.7-1.1 9.2-1"/><path fill="#da2426" d="M393.2 438h5.8v7a25 25 0 0 1-9.2 1H384v-7c3.3-1.1 5.7-1.1 9.2-1M352.2 438h5.8v7a25 25 0 0 1-9.2 1H343v-7c3.3-1.1 5.7-1.1 9.2-1M230.2 438h5.8v7a25 25 0 0 1-9.2 1H221v-7c3.3-1.1 5.7-1.1 9.2-1"/><path fill="#1a4784" d="M388 457h18v1h-7l-.4 2.3c-.6 2.5-1.3 4.4-2.6 6.7h-6l-1 7h-1z"/><path fill="#6a3c1a" d="m186 305 11.3-.1h3.3l3-.1h3c2.4.2 2.4.2 5.4 2.2.3 2.2.3 2.2.2 4.6v2.5l-.2 1.9h-7v-5h-15l2-3q3.8-.4 7.4-.4h2.1c3 0 5 0 7.5 2l1 1.4v-3c-2.5-1.2-4.3-1.2-7-1.3l-3-.1-3.1-.2h-3.2l-7.7-.4z"/><path fill="#775c46" d="M249 317h34v5l-4 1v32l-2 1v-34l5-1v-3h-33z"/><path fill="#02347b" d="m116 431 1 4-2-1h-7c-2.6 4-2.3 8.2-2.4 12.7v2.5L105 476l-2-1-.5-30.9v-2.5c0-6 0-6 2.9-9.1 3.9-2.2 6.3-1.8 10.6-1.5"/><path fill="#f08f47" d="M251 330h6l-1 4h3v13h-6c-2-2-2-2-2.2-5.5v-4.1l.1-2.2z"/><path fill="#d8d8d8" d="M176 428h28v10l-24 1v-2h21v-7h-26z"/><path fill="#9b5253" d="m183.3 425.5 23.7.5v13l-3-1v-10l-25 .6c-3.2.4-4.1 1-6 3.4l-2-1c4-4.7 6.2-5.6 12.3-5.5"/><path fill="#de8c50" d="M327 322h1v33h-2c-1.8-3.5-1.4-7.6-1.6-11.6l-.2-2.6c-.3-5.6-.5-11.3.8-16.8z"/><path fill="#d1dadf" d="M472 235h1v16c-26 1.4-26 1.4-38 0l-1 2-1-4h39z"/><path fill="#02275c" d="m295 458 1 3 3.3-.2c4 .2 5 .4 7.7 3.2.6 3 .6 3 .8 6.2l.1 3.3.1 2.5 6 1-1 3c-3.4.2-3.4.2-7 0-2.2-3.3-2.4-4.8-2.6-8.7l-.3-3-.1-2.3-7-2z"/><path fill="#8a8989" d="m376 427 23.1-.3h3.8c3.1.3 3.1.3 5 1.5 1.5 2.4 1.5 4.2 1.5 7v15.4c-.5 2.8-1.2 3.7-3.4 5.4l-3-1 1.5-1.2c1.9-2.3 1.9-3.4 1.9-6.4v-13.3c-.3-2.1-.3-2.1-1.5-3.9-2.7-1.8-4.9-1.6-8.1-1.7l-3.7-.1h-3.8l-3.8-.2-9.5-.2zM335 427l23.1-.3h3.8c3.1.3 3.1.3 5 1.5 1.5 2.4 1.5 4.2 1.5 7v15.4c-.5 2.8-1.2 3.7-3.4 5.4l-3-1 1.5-1.2c1.9-2.3 1.9-3.4 1.9-6.4v-13.3c-.3-2.1-.3-2.1-1.5-3.9-2.7-1.8-4.9-1.6-8.1-1.7l-3.7-.1h-3.8l-3.8-.2-9.5-.2z"/><path fill="#eeeee7" d="M190 311h15v5h7v1h-11.2q-5.9.3-11.8-1z"/><path fill="#d9d9d9" d="M180 464h24v10h-27v-1h24v-7h-21z"/><path fill="#174685" d="M117 426h1v43h-1l-1-37c-7.5-.3-7.5-.3-13 3v-3l3-2v-2l2.2-.2 2.7-.2 2.8-.3c2.3 0 2.3 0 3.3-1.3"/><path fill="#af5a1b" d="M266 321h8l.2 3 1.3 21.8v2c.3 3.8.3 3.8 1.5 7.2h-4v-22h-4v-2l-3-2h6v-7h-6z"/><path fill="#ca6820" d="m419.6 319.9 3.4.1q1.3 5 1 10.2v14.6l-.1 3.3c0 2.5.4 4.5 1.1 6.9h-4v-33h-7c2-2 2-2 5.6-2.1"/><path fill="#f09552" d="M268 318h14v3l-4 1-1 32-2-1v-32l-7-2z"/><path fill="#3f2a1a" d="m392 318 1 3 5 1v27l11 1v5h5v1h-6l-1-5h-3.9c-3.9.1-3.9.1-6.1-1-1-3.1-1.1-5.3-1.1-8.5v-10.1l.1-8.4-4-1z"/><path fill="#efefe8" d="M403 323h4v22l-4-1z"/><path fill="#7b4925" d="M446 305c5.4-.4 5.4-.4 8 0 2 2 2 2 3 4l-1 2-1.2-2c-1.7-2.3-1.7-2.3-4.5-2.2l-2.3.2 3 2 2 5 2 4-17.4.7-3.8.2-3.4.1q-5.4 0-10.4-1v-1c10.3-1.3 20.6-1 31-1l-1-1.6-1.5-2.2-1.4-2.2c-1.1-2-1.1-2-1.1-5"/><path fill="#16427f" d="M347 457h17v1h-16v6h4v-2h4l1-3 4 1v17h-1l-1-14-6 2h-5v9h-1z"/><path fill="#706f6f" d="m213 427 23-.4h3.8c3.2.4 3.2.4 5.6 2.2 2.4 3.3 2.1 6.5 2 10.3v2.2c0 2.1 0 2.1-.4 5.7l-3 2 .1-3.4.2-4.4V439c.1-3.3.1-5.5-2-8.2-3-2.3-4.8-2.3-8.6-2.4l-3.6-.1h-3.8l-3.9-.1-9.4-.2z"/><path fill="#b55d1c" d="M352.9 319.8h9.7c6.3 0 6.3 0 7.4 1.2l.3 7.5v2.3l.7 24.2h-2v-25h-5l1-2-4-2h8l-1-4h-19c2-2 2-2 3.9-2.2"/><path fill="#092c5d" d="M151 433c2 2 2 2 2.2 4.6v10.5l-.1 3.8-.1 9.1h-3v-15.8l-.1-3.4v-3.2c.1-2.6.1-2.6 1.1-5.6"/><path fill="#082b5c" d="M132 433c3 3 3 3 3.3 5.6v3.2l-.1 6.9v3.6l-.2 8.7h-3z"/><path fill="#8e3a42" d="M406 426c4.9 3.8 4.9 3.8 6 6q.4 4.6.4 9.3v2.5c.2 4.5 0 7.3-3 10.8L407 457c0-3 0-3 1-4q.3-5.7.2-11.3v-9.2a14 14 0 0 0-2.2-6.5"/><path fill="#8e383b" d="M365 426c4.9 3.8 4.9 3.8 6 6q.4 4.6.4 9.3v2.5c.2 4.5 0 7.3-3 10.8L366 457c0-3 0-3 1-4q.3-5.7.2-11.3v-9.2a14 14 0 0 0-2.2-6.5"/><path fill="#453224" d="m450 322 2 1-1 33h-7l-1-13h3l2 12h2z"/><path fill="#472c18" d="M341 325c-3 2-3 2-7 2l.4 9.3.2 2.7v2.6l.2 2.3a12 12 0 0 0 1.2 5.1l8 1v5h5v1h-6v-5l-1.9.1h-2.5l-2.4.2-2.2-.3c-2.1-3.2-2.2-4-2.2-7.6v-8.3c0-6.8 0-6.8 1.2-9.1 3-1 5-1 8-1"/><path fill="#442a17" d="M202 325c-3 2-3 2-7 2l.4 9.3.2 2.7v2.6l.2 2.3a12 12 0 0 0 1.2 5.1l8 1v5h5v1h-6v-5l-3.8.2c-2.6.1-3.7.1-5.8-1.4-1.8-2.3-1.8-3.5-1.7-6.4v-8.3c.1-6.8.1-6.8 1.3-9.1 3-1 5-1 8-1"/><path fill="#c83937" d="M487 37h4c2.2 4.7 3.5 8.7 4 14l4 1 1 14-2 1c-1.2-3.5-1-6.4-1-10l-2-1 1-4-3-1-.2-3.4-.8-3.6c-2-1.2-2-1.2-4-2-.7-2.6-.7-2.6-1-5"/><path fill="#44372b" d="M317 322h6v12h-6z"/><path fill="#03347c" d="m374 474 3 2c.6 3.2.3 4.6-1.4 7.3-3.7 2.4-7.3 2.6-11.6 1.7-1.8-1.5-1.8-1.5-3-3l1-2h10z"/><path fill="#09316a" d="M315 458h1l1 16 12 1v1h-8v3c-8.4 3.4-8.4 3.4-13 3v-2l2.4-.4 2.6-.6c1.1-2.3 1.2-3.8 1.3-6.4l.1-2.5.2-2.7v-2.7z"/><path fill="#ac581a" d="M184 309h1l1 46h-2l-1-33-4-1v-3l4-1z"/><path fill="#01285e" d="m161 476 2.1 1c3.1 1 5.5 1.3 8.8 1.3h16.6c2.7 0 2.7 0 4.5-2.3l-1 4c-4 2-9.4 1.2-13.9 1.2h-9.5a12 12 0 0 1-6.6-2.2z"/><path fill="#031f47" d="m209 471 1.5 2c3.3 2.7 6.2 2.7 10.3 2.8h2l5.2.2-1 2h-22l-1-2z"/><path fill="#c86820" d="M312 343h5v4.4l.1 2.4c-.1 2.2-.1 2.2-1.1 4.2h-10l4-1z"/><path fill="#737373" d="M180 457h3v6h23v11h-2v-10h-24z"/><path fill="#747474" d="M180 439h3v6h23v11h-2v-10h-24z"/><path fill="#f39e5f" d="M448 324h2v29c-2.8-2.8-2.5-5.7-2.7-9.4l-.1-2.2q-.4-8.8.8-17.4"/><path fill="#d7d8d5" d="m1 109 2.2 1c5.4 1.4 10.6 1.5 16.2 1.6l3.4.1 8.2.3v1l-29 1 1 6c-.4 2.4-.4 2.4-1 4H0q-.3-7.6 1-15"/><path fill="#f29b5a" d="M371 318h7v3l-4 1-1 29h-1q-1.1-16.5-1-33"/><path fill="#503f31" d="M428 327h2v3l2.3.2c2.7.8 2.7.8 4.4 3 1.5 3.2 2.3 5.2 2.3 8.8-2 4.6-4.3 8.6-8 12l5 1v1h-7c.5-4.3 2-6.6 4.7-10 3-3.7 3-3.7 2.8-8.4L435 335l-1-3-5-1z"/><path fill="#bb2a2a" d="M28 33c.4 2.1.4 2.1 0 5a23 23 0 0 1-6 6h-4l-1 4-2-1c7.4-14 7.4-14 13-14"/><path fill="#ac2c29" d="M492 40h2l3.9 6.6 1 1.9q3.3 5.4 5.1 11.5l-6-3v-5l-3-1c-1.1-3.3-1.1-3.3-2-7l-.6-2.4z"/><path fill="#0a2850" d="M372 433h2v20h-4l.4-8.9.2-2.5V439l.2-2.2c.2-1.9.2-1.9 1.2-3.9"/><path fill="#215298" d="M0 395h1l1 7 12 1-4 2-1.3 1.6C6 408.8 3.3 408.2 0 408z"/><path fill="#edede6" d="M343 330v15h-4l-.2-6.4V335l.2-3c3-2 3-2 4-2"/><path fill="#eeeee6" d="M204 330v15h-4l-.2-6.4V335l.2-3c3-2 3-2 4-2"/><path fill="#f09755" d="M401 323h1v2l.3 8.8v3.1l.2 3v2.7c.6 2.8 1.4 3.7 3.5 5.4h-5c-1.7-1.7-1.1-3.8-1.1-6v-15.8c.1-2.2.1-2.2 1.1-3.2"/><path fill="#ed9b5e" d="M452 306c2.8 2.6 5 5 7 8.3 1.7 3 1.7 3 4.8 3.6l2.2.1v3c-6.6-.7-6.6-.7-10-3-1.2-2.3-1.2-2.3-2.2-5l-1-2.7c-.8-2.3-.8-2.3-.8-4.3"/><path fill="#022b66" d="M332 465h1v15c-3.7 1.9-5 2.5-9 2-1.8-1.3-1.8-1.3-3-3v-3h3v2h6c1.8-1.8 1.4-4.6 1.6-7l.2-3.4z"/><path fill="#645f5f" d="M243 449c2.3 1.7 3.8 3 4.4 5.9l.1 6.6v2.3c0 3.9 0 5.6-2.5 8.7l-2 1.5-2-1 2-3h2l-.4-7.4-.2-2.2c.1-3.5.1-3.5-1.4-6.4z"/><path fill="#f29e61" d="m232 323 1 4h10c1.7 3.3 1.1 7 1 10.6v8.4h-2l-.2-3.5-.2-4.4-.2-2.3c.2-3.7.2-3.7-1.4-6.8l-4-.6-4-.4z"/><path fill="#cd6b22" d="m411 320 1 31 2 1v3h-3c-1.1-3.4-1.2-6-1.3-9.6l-.1-4-.6-18.4-6-1c3-2 3-2 8-2"/><path fill="#656565" d="M384 457h3v17h-3zM343 457h3v17h-3z"/><path fill="#ac591b" d="M409 323h1l1 32h-2v-6h-7c2-3 2-3 6-4z"/><path fill="#ebebe4" d="m235 331 3 1v12l-4 1v-6.4l-.1-3.7c.1-2.9.1-2.9 1.1-3.9"/><path fill="#905f3a" d="M189 310c1 2 1 2 0 6h26c-4.6 4.6-14.6 3.1-20.8 3.1q-3.2-.2-6.2-1.1v-7z"/><path fill="#8c5933" d="M321 305h6c1 1 1 1 1.2 3.4-.2 2.6-.2 2.6-2.2 4.6-2.6-.4-2.6-.4-5-1z"/><path fill="#002971" d="M470 495q-4 3.1-8.6 5.8l-2.3 1.3c-2.1.9-2.1.9-5.1-.1v-2l5.2-3 3-1.8c3.1-1.3 4.5-1.2 7.8-.2"/><path fill="#395470" d="M225 457h10v5h-10z"/><path fill="#39536d" d="M347 439h10v5h-10zM388 439h10v5h-10zM225 439h10v5h-10z"/><path fill="#de7629" d="M232 328c6-.2 6-.2 8 0 2.4 2.4 2.3 3 2.4 6.1l.1 2.5.1 2.5.1 2.6.3 6.3h-7v-3h3v-2h2l-.4-6-.3-3.3c0-2.6 0-2.6-1.3-3.7l-7-1z"/><path fill="#be6421" d="M447 306h5l4 9c1 3 1 3 1 7h-7l3-1v-3h2l-2-2.2c-2-2.8-2-2.8-2-6.8l-4-2z"/><path fill="#223a76" d="m253 183 10.5-.1h3A53 53 0 0 1 283 185v1l-8 1v2h-5l3-1v-4h-20z"/><path fill="#052c63" d="M185 458h16v3h-16z"/><path fill="#062d64" d="M185 440h16v3h-16z"/><path fill="#9e521b" d="m297 318 9.5 1.2c5.3.7 5.3.7 7.5 1.8v11h-3l1-1 .6-4.6.2-2.5.2-1.9h-6.3l-3.6.1c-3.1-.1-3.1-.1-6.1-1.1z"/><path fill="#ed9d61" d="M360 331h1l.1 3.8.4 7.4v2.5l.2 2.2c.3 2.3 1.1 4 2.3 6.1l-5-2v-12.2l-.1-2.5v-2.4c.1-1.9.1-1.9 1.1-2.9"/><path fill="#bc6523" d="M230 322h1l1 7 3.4-.1c3.6.1 3.6.1 5.6 2.1.2 2.8.2 2.8.1 6.1v3.3l-.1 2.6h-1v-11h-3.9l-2.2-.1c-2 0-2 0-3.9 1.1z"/><path fill="#023071" d="M389 458h8c-.9 4.9-.9 4.9-2 6h-6z"/><path fill="#f39c5c" d="M232 331h1v22l-2-1a54 54 0 0 1 0-20z"/><path fill="#f39d5e" d="M304 328h2v7l3 1-1 2h-2v13l-2-1z"/><path fill="#df7525" d="m441 340 7 2 .2 1.8.2 2.4.3 2.4a48 48 0 0 0 1.3 6.4h-2l-2-12h-3l-1 3h-3q.6-3.1 2-6"/><path fill="#80471c" d="M359 327h7l-1.5 2c-2 4-2 7.7-2.2 12.3v2.5l-.3 6.2h-1l-1-18h-1z"/><path fill="#e29155" d="M220 327h5v3h-3v14h-2z"/><path fill="#c54a45" d="m441 5 10 3v1l-2.4.4-2.6.6-1 2-5-1-1-2z"/><path fill="#2d2d2b" d="M266 322h6v7h-6z"/><path fill="#888" d="M291 439h2v6h21v1h-24c0-6 0-6 1-7"/><path fill="#031f46" d="M209 454h2v6c-1 1-1 1-3 1.1h-5.1l-1.9-.1v-3l8-1z"/><path fill="#eeeee6" d="M256 334h3v10h-4v-4.4l-.1-2.5c.1-2.1.1-2.1 1.1-3.1"/><path fill="#ea7b29" d="M395 318h4l1 2 3 2-2 2c-.4 2.2-.4 2.2-.4 4.8l-.1 2.8-.1 3-.1 3-.3 7.4h-1v-2.2l-.3-9.6v-3.4l-.2-3.3v-3c-.6-2.8-1.2-3.7-3.5-5.5"/><path fill="#493b30" d="M446 305c5.4-.4 5.4-.4 8 0 2 2 2 2 3 4l-1 2-1.2-2c-1.7-2.3-1.7-2.3-4.5-2.2l-2.3.2 3 2q1.6 4 3 8h-2c-1.5-1.9-1.5-1.9-3.1-4.3l-1.7-2.4C446 308 446 308 446 305"/><path fill="#022960" d="M348 458h8l-2 4h-2v2h-4z"/><path fill="#b05a1b" d="M323 338h2l1 17h-3z"/><path fill="#c64c49" d="M416 1h5l1 3h-28V3l22-1z"/><path fill="#be4a47" d="M90 1h5v2h23v1H91z"/><path fill="#271c13" d="M248 334h1l.5 7.4c.6 3 1.3 4.5 3.5 6.6 2.5.7 2.5.7 5.2.8l2.7.1 2.1.1v1l-5.2.3h-3c-2.8-.3-2.8-.3-5.1-2-2.2-3-2.1-4.8-2-8.6l.2-3.2z"/><path fill="#c3292a" d="M14 81c2 1 2 1 2.7 3 .3 2 .3 2-.7 4l2 3c-.4 2.7-.4 2.7-1 5-1.5-1.1-1.5-1.1-3-3-.3-3-.3-3-.2-6.2v-3.3z"/><path fill="#dd772c" d="M251 330h1l1 14 6 1v2h-6c-2-2-2-2-2.2-5.5v-4.1l.1-2.2z"/><path fill="gray" d="M221 457h3v6h9v1h-12zM384 439h3v6h9v1h-12zM343 439h3v6h9v1h-12zM221 439h3v6h9v1h-12z"/><path fill="#efefe8" d="M318 323h3v10h-3z"/><path fill="#123b73" d="m316 474 13 1v1h-8v3l-5 2z"/><path fill="#c26f32" d="M440 347c-1.7 6.8-1.7 6.8-4 9l-2-2 2-6c2-1 2-1 4-1"/><path fill="#f19755" d="M314 343h3v9l-3 1z"/><path fill="#b96425" d="m429 325 5 1 1 3c2 1.7 2 1.7 4 3l-1 2a45 45 0 0 1-8-4c-1-2.7-1-2.7-1-5"/><path fill="#af2726" d="M508 72c2.4 3.8 2.6 7.6 3 12h-3l-.6-4.3-.3-2.4c-.1-2.3-.1-2.3.9-5.3"/><path fill="#d6dce1" d="m453 233 1 4h-21l1-2h3.6l4.8.1h2.4l6.2-.1z"/><path fill="#964e19" d="M443 343h3l2 12h-3v-11z"/><path fill="#b93835" d="m477 24 4 2v2l4 2c-1.7.7-1.7.7-4 1-2.2-1.2-2.2-1.2-4-3z"/><path fill="#00266f" d="m487 475 4 2-3 1-2 4-2 1c.8-5.7.8-5.7 3-8"/><path fill="#b92e2c" d="M498 52h3l3 6-1 2c-2.5-1.2-2.5-1.2-5-3-.3-2.7-.3-2.7 0-5"/><path fill="#052653" d="M226 458h8v3h-8z"/><path fill="#06244e" d="M389 440h8v3h-8zM348 440h8v3h-8zM226 440h8v3h-8z"/><path fill="#ca6d27" d="M316 333h8v5l-9-1z"/><path fill="#ebd9d6" d="m285 247-1 6-6-1v-4a24 24 0 0 1 7-1"/><path fill="#c54843" d="m88 2-1 3V3h-2l-1 4c-3.9-1.7-3.9-1.7-5-4 3-1.5 5.7-1 9-1"/><path fill="#00266d" d="M62.4 501.6c2.6.4 2.6.4 4.4 2.4l1.2 2c-2 1-2 1-4 .4l-2.1-.8-2.2-1-1.7-.6c2-2 2-2 4.4-2.4"/><path fill="#ab6b3b" d="m363 350 3 1-1 5-5-2v-3h3z"/><path fill="#f29e61" d="M433 327c2.3.1 2.3.1 5 1 2.3 3 2.3 3 4 6-3 0-3 0-5.6-2.4-2.4-2.6-2.4-2.6-3.4-4.6"/><path fill="#022658" d="M389 458h7c-1.2 2-1.2 2-3 4h-4z"/><path fill="#f29754" d="M304 328h2v7l3 1-3 3h-1z"/><path fill="#a36a3f" d="M431 316v2l3 1-14-1v-1q5.4-1 11-1"/><path fill="#b32927" d="m7 63 3 2-1 3H7l-1 4-2-1z"/><path fill="#002a74" d="m474 486 2 1 1 4-4 2c-.6-2.4-.6-2.4-1-5z"/><path fill="#c1631e" d="m297 318 15 2v1h-15z"/><path fill="#944c16" d="M398 345h2l2 3c3.6.7 3.6.7 7 1v1h-4.4l-2.4.1c-2.2-.1-2.2-.1-4.2-1.1z"/><path fill="#bc6321" d="M361 326h8v4h-5l1-2z"/><path fill="#efefe8" d="M267 323h4v5h-4z"/><path fill="#626060" d="M403 427c2.9.6 3.9.9 6 3l-1 3-5-4zM362 427c2.9.6 3.9.9 6 3l-1 3-5-4z"/><path fill="#a25319" d="M221 348c1.1 4.4.6 5.9-1 10l-4-1z"/><path fill="#e77e30" d="M301 328h3c1.3 4 1 7.9 1 12h-1l-.4-3.2c-.5-3.3-1.2-5.8-2.6-8.8"/><path fill="#d9dbde" d="M343 259h6l1 2c-2.7 1.4-5 1-8 1z"/><path fill="#dee1e1" d="m315 245 2 1c-.5 3.8-1.5 6-4 9l-2-1 1.4-2.2c1.4-2.4 2.1-4.2 2.6-6.8"/><path fill="#d0d5db" d="M440 227c6-.2 6-.2 8 0l2 2c-3.6 1.2-6.3.7-10 0z"/><path fill="#aeaeac" d="M1 113h1c1.3 7.4 1.3 7.4 0 11H0l-.1-6.8C0 115 0 115 1 113"/><path fill="#002f7d" d="m9 441 1 3-3 1-1 3-1-6z"/><path fill="#013288" d="M0 415c1.5 1 1.5 1 3 3 .2 3.7.2 3.7 0 7l-3-2c-.4-2.7-.1-5.2 0-8"/><path fill="#b86324" d="M266 329h7v4h-4v-2z"/><path fill="#f08536" d="m220 344 7 1v3c-2.4-.3-2.4-.3-5-1z"/><path fill="#cb681f" d="M261 343h1v5h-8v-1h5z"/><path fill="#c86666" d="M276 240h4v3l3 1-8 1 3-3z"/><path fill="#d3d8dd" d="M148 227c7.4-.3 7.4-.3 11 2l-2 2-9-3z"/><path fill="#002d73" d="m280.6 185.9 3.4.1-1 3-8-1c2-2 2-2 5.6-2.1"/></svg>